<svg xmlns="http://www.w3.org/2000/svg" viewBox="0 0 375.31 164.9"><defs><style>.cls-1{fill:#dbcc40;}.cls-2{fill:#b3b3b3;}.cls-3{fill:#e40139;}.cls-4{fill:#242e86;}.cls-5{fill:#fff;}</style></defs><g id="Layer_2" data-name="Layer 2"><g id="Main_Logo" data-name="Main Logo"><path class="cls-1" d="M40.88,57.77H80L78.2,67.33H40.88a4.78,4.78,0,0,1,0-9.56Z"/><path class="cls-1" d="M4.78,77.17H76.34l-1.81,9.57H4.78a4.79,4.79,0,0,1,0-9.57Z"/><path class="cls-1" d="M30.8,96.58H72.67l-1.81,9.57H30.8a4.79,4.79,0,0,1,0-9.57Z"/><ellipse class="cls-2" cx="69.89" cy="145.36" rx="19.98" ry="17.99" transform="translate(-91.18 136.98) rotate(-61.34)"/><ellipse class="cls-2" cx="146.8" cy="145.36" rx="19.98" ry="17.99" transform="translate(-51.15 204.47) rotate(-61.34)"/><path class="cls-3" d="M90.11,38.45h0v0L74.76,119.6a22.86,22.86,0,0,1,7.81,2.56c8.35,4.56,12.75,13.71,12.17,23.2H122a28,28,0,0,1,3.4-11.72c4.82-8.81,13.66-14.28,23.09-14.28a22.9,22.9,0,0,1,20.22,12l17.57-92.95ZM111,57.19a4.75,4.75,0,1,1,4.75-4.75A4.75,4.75,0,0,1,111,57.19Zm50.27,0A4.75,4.75,0,1,1,166,52.44,4.75,4.75,0,0,1,161.26,57.19Z"/><path class="cls-4" d="M119.44,33.67l.57-3A25.36,25.36,0,0,1,149.18,9.88c9.29,1.76,13.69,8.85,11.77,19L160,33.67h9.67l.58-3c1.51-8,.23-15.1-3.69-20.57A24.58,24.58,0,0,0,151,.54a34.88,34.88,0,0,0-40.27,28.32l-.91,4.81Z"/><path class="cls-4" d="M242.22,53.54a3.2,3.2,0,0,0,.86-1.86l1.88-10a.49.49,0,0,1,.53-.44h6.71c.3,0,.42.15.36.44L250.1,54.77a7.53,7.53,0,0,1-2,4.27,6.2,6.2,0,0,1-4.37,1.36h-24c-1.87,0-3.13-.45-3.76-1.36s-.77-2.33-.41-4.27l1.92-10.16a.49.49,0,0,1,.53-.45h6.71q.45,0,.36.45l-1.33,7.07a2.35,2.35,0,0,0,.16,1.86,1.91,1.91,0,0,0,1.54.51h15A2.72,2.72,0,0,0,242.22,53.54ZM229.34,39.38c-.3,0-.42-.15-.37-.45l.94-5a.49.49,0,0,1,.53-.45h5.24q.44,0,.36.45l-.94,5a.49.49,0,0,1-.53.45Zm7.38,0q-.45,0-.36-.45l.93-5a.49.49,0,0,1,.53-.45h5.24q.45,0,.36.45l-.94,5a.49.49,0,0,1-.53.45Z"/><path class="cls-4" d="M259.39,30.43a.49.49,0,0,1,.53-.45h6.71q.45,0,.36.45l-4,21.25a2.35,2.35,0,0,0,.16,1.86,1.91,1.91,0,0,0,1.54.51h.8a1.17,1.17,0,0,1,1.2.74,5,5,0,0,1,0,2.57,5.34,5.34,0,0,1-.89,2.46,1.9,1.9,0,0,1-1.47.58H259c-1.88,0-3.13-.45-3.77-1.36s-.77-2.33-.4-4.27Z"/><path class="cls-4" d="M278.33,60.72a15.33,15.33,0,0,1-4.54-.63,6.23,6.23,0,0,1-3.21-2.19,5.42,5.42,0,0,1-1.47,1.41,6.49,6.49,0,0,1-1.66.76,7.81,7.81,0,0,1-1.67.29c-.54,0-1,0-1.49,0a1.21,1.21,0,0,1-1.21-.67,4.39,4.39,0,0,1,0-2.41,6.08,6.08,0,0,1,.9-2.53,1.8,1.8,0,0,1,1.5-.74h.81a2.44,2.44,0,0,0,1.37-.4,4.18,4.18,0,0,0,1.07-1,6.4,6.4,0,0,0,.76-1.45,9.44,9.44,0,0,0,.47-1.64,10.49,10.49,0,0,1,1.77-4.4,10.3,10.3,0,0,1,2.93-2.75,11,11,0,0,1,3.63-1.44,19.55,19.55,0,0,1,3.83-.4,15.65,15.65,0,0,1,3.78.45A6.8,6.8,0,0,1,289,42.6a6.47,6.47,0,0,1,1.79,3.18,11.66,11.66,0,0,1,0,5.1A13.66,13.66,0,0,1,289,55.6a10.16,10.16,0,0,1-2.85,3,11,11,0,0,1-3.68,1.61A18.42,18.42,0,0,1,278.33,60.72Zm2.6-13.83a3.59,3.59,0,0,0-2.47.88,4.89,4.89,0,0,0-1.36,2.84c-.27,1.46-.18,2.45.29,3a2.73,2.73,0,0,0,2.13.79,3.67,3.67,0,0,0,2.5-.81,5,5,0,0,0,1.34-3,3.66,3.66,0,0,0-.26-2.89A2.59,2.59,0,0,0,280.93,46.89Z"/><path class="cls-4" d="M303.21,60.4a20.5,20.5,0,0,1-4.43-.42,6.28,6.28,0,0,1-3-1.5,5.19,5.19,0,0,1-1.49-2.88,12.39,12.39,0,0,1,.17-4.59A14.4,14.4,0,0,1,296.27,46a11.62,11.62,0,0,1,2.94-3.22,10.49,10.49,0,0,1,3.61-1.7,16.23,16.23,0,0,1,3.91-.49,15.66,15.66,0,0,1,3.81.45,6.79,6.79,0,0,1,3,1.59,6.26,6.26,0,0,1,1.77,3.11,11.58,11.58,0,0,1,0,5l-.63,3.35h3.08c1.19,0,1.59,1.05,1.2,3.13a6.08,6.08,0,0,1-.91,2.6,1.87,1.87,0,0,1-1.49.62h-3.08l-.14.76A10.54,10.54,0,0,1,310,67.47q-2.57,2.19-7.53,2.19h-7c-.3,0-.42-.15-.36-.44l1-5.46a.49.49,0,0,1,.53-.45h5a13.27,13.27,0,0,0,1.62-.09,3.27,3.27,0,0,0,1.27-.4,2.83,2.83,0,0,0,.9-.89,5,5,0,0,0,.6-1.53Zm2.42-13.51a3.3,3.3,0,0,0-2.52,1,5.39,5.39,0,0,0-1.28,2.75,4.81,4.81,0,0,0-.07,1.7,2.12,2.12,0,0,0,.45,1,1.6,1.6,0,0,0,.88.52,5.22,5.22,0,0,0,1.23.13h2.91l.67-3.58a3.44,3.44,0,0,0-.28-2.75A2.39,2.39,0,0,0,305.63,46.89Z"/><path class="cls-4" d="M330.49,42.42A39.22,39.22,0,0,1,335,41.1a21.77,21.77,0,0,1,4.95-.56,17.11,17.11,0,0,1,4.49.54,7.14,7.14,0,0,1,3.25,1.81,6.55,6.55,0,0,1,1.69,3.36,13.22,13.22,0,0,1-.14,5.16,2,2,0,0,0,.48,2,3,3,0,0,0,2.11.67h1.25c1.2,0,1.59,1.06,1.19,3.18a6.19,6.19,0,0,1-.86,2.35,1.79,1.79,0,0,1-1.52.82,7.94,7.94,0,0,1-3.19-.55,3.86,3.86,0,0,1-1.92-2.31,6.87,6.87,0,0,1-3.38,2.24,17.94,17.94,0,0,1-5.18.62h-8.46a12.76,12.76,0,0,1-2.45-.22,2.06,2.06,0,0,1-1.51-.89,4.44,4.44,0,0,1-2.1.94,21.41,21.41,0,0,1-2.95.17h-4.21a1.21,1.21,0,0,1-1.21-.67,4.83,4.83,0,0,1,0-2.55,5.87,5.87,0,0,1,.89-2.55,1.91,1.91,0,0,1,1.49-.58H319a1.59,1.59,0,0,0,1.56-.8,9.74,9.74,0,0,0,.68-2.33l1.84-9.75a.5.5,0,0,1,.53-.45h6.71c.3,0,.42.15.37.45Zm6.58,4.47a16.17,16.17,0,0,0-4,.52,34.8,34.8,0,0,0-3.73,1.18l-.73,3.85-.15.83a7.37,7.37,0,0,1-.2.78h8a21.67,21.67,0,0,0,2.39-.11,3.69,3.69,0,0,0,1.49-.45,2,2,0,0,0,.87-.94,7.54,7.54,0,0,0,.6-3.37,2.11,2.11,0,0,0-.57-1.26,3.35,3.35,0,0,0-1.45-.76A9.36,9.36,0,0,0,337.07,46.89Z"/><path class="cls-4" d="M351.84,60.4a1.2,1.2,0,0,1-1.21-.67,4.27,4.27,0,0,1,0-2.41c.41-2.18,1.22-3.27,2.41-3.27h10.29a4.73,4.73,0,0,0,2.78-.62,3.66,3.66,0,0,0,1.12-2.29,5.9,5.9,0,0,0,.09-1.56,3.41,3.41,0,0,0-.39-1.37,2.38,2.38,0,0,0-1-1,3.7,3.7,0,0,0-1.75-.36,5.74,5.74,0,0,0-2.51.54,15.37,15.37,0,0,0-2.16,1.25c-.28.18-.49.2-.64,0l-2.3-3.94a1,1,0,0,1-.13-.36c0-.12,0-.23.18-.35a20.57,20.57,0,0,1,4.25-2.53,12.7,12.7,0,0,1,5.18-1,12.47,12.47,0,0,1,4.8.81,6.9,6.9,0,0,1,3,2.26,7.35,7.35,0,0,1,1.34,3.49,14.15,14.15,0,0,1-.18,4.45,16.47,16.47,0,0,1-1.44,4.52,8.2,8.2,0,0,1-2.15,2.7,6.84,6.84,0,0,1-2.81,1.3,16.87,16.87,0,0,1-3.46.33ZM363.4,36.78c-.29,0-.42-.14-.36-.44l.94-5a.49.49,0,0,1,.53-.45h6.8q.45,0,.36.45l-.93,5a.49.49,0,0,1-.54.44Z"/><path class="cls-4" d="M226.64,106.44a13.91,13.91,0,0,1-1.14,3.62,7.18,7.18,0,0,1-1.77,2.37,6.34,6.34,0,0,1-2.42,1.28,11.78,11.78,0,0,1-3.09.38H207c-.3,0-.42-.15-.37-.45l1-5.46a.5.5,0,0,1,.53-.45h7.21a7.67,7.67,0,0,0,1.7-.15,2.81,2.81,0,0,0,1-.45,1.63,1.63,0,0,0,.57-.78,8.15,8.15,0,0,0,.31-1.17l.34-1.83a2.14,2.14,0,0,0-.44-2.17,4,4,0,0,0-2.52-.6h-5.1c-.3,0-.42-.15-.37-.45l1-5.46a.5.5,0,0,1,.53-.45h8.37q4,0,5.7,2t.87,6.13Z"/><path class="cls-4" d="M237.45,113.64a.5.5,0,0,1-.54.45H230.2c-.29,0-.42-.15-.36-.45l5.56-29.53a.5.5,0,0,1,.54-.44h6.71c.29,0,.41.15.36.44Z"/><path class="cls-4" d="M252.12,114.09a19.85,19.85,0,0,1-4.43-.43,6.28,6.28,0,0,1-3-1.5,5.12,5.12,0,0,1-1.49-2.88,12.39,12.39,0,0,1,.17-4.59,14.27,14.27,0,0,1,1.84-5,11.48,11.48,0,0,1,2.94-3.22,10.14,10.14,0,0,1,3.61-1.7,15.93,15.93,0,0,1,7.72,0,6.79,6.79,0,0,1,3,1.59,6.31,6.31,0,0,1,1.77,3.11,11.58,11.58,0,0,1-.05,5l-.63,3.35h3.08c1.19,0,1.59,1,1.2,3.14a6.08,6.08,0,0,1-.91,2.59,1.86,1.86,0,0,1-1.48.63h-3.09l-.14.76a10.54,10.54,0,0,1-3.34,6.3q-2.56,2.2-7.53,2.2h-7q-.45,0-.36-.45l1-5.46a.49.49,0,0,1,.53-.45h5a15.81,15.81,0,0,0,1.62-.08,3.45,3.45,0,0,0,1.27-.41,2.83,2.83,0,0,0,.9-.89,5,5,0,0,0,.6-1.52Zm2.42-13.51a3.29,3.29,0,0,0-2.52,1,5.39,5.39,0,0,0-1.28,2.75,4.81,4.81,0,0,0-.07,1.7,2.2,2.2,0,0,0,.45,1.06,1.65,1.65,0,0,0,.88.51,5.28,5.28,0,0,0,1.23.13h2.91l.67-3.57a3.46,3.46,0,0,0-.28-2.76A2.39,2.39,0,0,0,254.54,100.58Z"/><path class="cls-4" d="M265.68,114.09a1.22,1.22,0,0,1-1.19-.58,4.46,4.46,0,0,1,.05-2.38,7.37,7.37,0,0,1,.87-2.61,1.68,1.68,0,0,1,1.47-.79h6.21a1.17,1.17,0,0,1,1.2.79,5,5,0,0,1,0,2.48,5.53,5.53,0,0,1-.9,2.51,1.93,1.93,0,0,1-1.47.58Z"/><path class="cls-4" d="M272.34,114.09a1.2,1.2,0,0,1-1.18-.58,4.43,4.43,0,0,1,0-2.38,7.37,7.37,0,0,1,.87-2.61,1.69,1.69,0,0,1,1.47-.79h6.22a1.16,1.16,0,0,1,1.19.79,4.85,4.85,0,0,1,0,2.48,5.68,5.68,0,0,1-.89,2.51,1.94,1.94,0,0,1-1.48.58Z"/><path class="cls-4" d="M279,114.09a1.22,1.22,0,0,1-1.19-.58,4.46,4.46,0,0,1,.05-2.38,7.37,7.37,0,0,1,.87-2.61,1.68,1.68,0,0,1,1.47-.79h6.21a1.17,1.17,0,0,1,1.2.79,5,5,0,0,1,0,2.48,5.53,5.53,0,0,1-.9,2.51,1.93,1.93,0,0,1-1.47.58Z"/><path class="cls-4" d="M285.67,114.09a1.2,1.2,0,0,1-1.18-.58,4.43,4.43,0,0,1,0-2.38,7.37,7.37,0,0,1,.87-2.61,1.69,1.69,0,0,1,1.47-.79h6.22a1.16,1.16,0,0,1,1.19.79,4.85,4.85,0,0,1,0,2.48,5.68,5.68,0,0,1-.89,2.51,1.94,1.94,0,0,1-1.48.58Z"/><path class="cls-4" d="M292.34,114.09a1.22,1.22,0,0,1-1.19-.58,4.46,4.46,0,0,1,.05-2.38,7.37,7.37,0,0,1,.87-2.61,1.68,1.68,0,0,1,1.47-.79h6.21a1.17,1.17,0,0,1,1.2.79,5,5,0,0,1,0,2.48,5.53,5.53,0,0,1-.9,2.51,1.93,1.93,0,0,1-1.47.58Z"/><path class="cls-4" d="M299,114.09a1.2,1.2,0,0,1-1.18-.58,4.43,4.43,0,0,1,0-2.38,7.37,7.37,0,0,1,.87-2.61,1.69,1.69,0,0,1,1.47-.79h6.22a1.16,1.16,0,0,1,1.19.79,4.85,4.85,0,0,1,0,2.48,5.68,5.68,0,0,1-.89,2.51,1.94,1.94,0,0,1-1.48.58Z"/><path class="cls-4" d="M320.88,94.4a12.24,12.24,0,0,1,3.72.65,4.77,4.77,0,0,1,2.29,1.7,5.81,5.81,0,0,1,.94,2.86,16.15,16.15,0,0,1-.31,4.19l-.5,2.64a13.91,13.91,0,0,1-1.14,3.62,7.18,7.18,0,0,1-1.77,2.37,6.27,6.27,0,0,1-2.42,1.28,11.78,11.78,0,0,1-3.09.38H305.45a1.19,1.19,0,0,1-1.21-.72,7.93,7.93,0,0,1,.92-5,1.91,1.91,0,0,1,1.48-.61h9.13a9.33,9.33,0,0,0,1.63-.11,2.44,2.44,0,0,0,1-.38,1.62,1.62,0,0,0,.59-.76,5.78,5.78,0,0,0,.35-1.25l.32-1.7a2.26,2.26,0,0,0-.39-2.19,3.88,3.88,0,0,0-2.57-.63h-6.48c-.3,0-.42-.15-.37-.45l.8-4.25a1.9,1.9,0,0,1,.64-.87l1-.87,11.43-11c.26-.27.47-.31.61-.14l3.8,3.76q.33.36.06.63Z"/><path class="cls-4" d="M337.83,113.64a.5.5,0,0,1-.53.45h-6.71c-.3,0-.42-.15-.37-.45l5.57-29.53a.48.48,0,0,1,.53-.44H343c.3,0,.42.15.36.44Zm-.92-35.25a3.69,3.69,0,0,1-.17-2.19,5.35,5.35,0,0,1,.63-1.66,5.2,5.2,0,0,1,1.23-1.43,6.3,6.3,0,0,1,1.78-1,6.41,6.41,0,0,1,2.26-.38,5.2,5.2,0,0,1,2.53.56,3.93,3.93,0,0,1,1.5,1.32.28.28,0,0,1-.12.4l-1.85,1.75a.33.33,0,0,1-.45,0,2.39,2.39,0,0,0-1.86-1,2.11,2.11,0,0,0-1.22.4,1.92,1.92,0,0,0-.76,1.3,1.67,1.67,0,0,0,.16,1.21,2.2,2.2,0,0,0,.68.76h4.38c.18,0,.25.1.21.31l-.44,2.37c0,.21-.15.32-.33.32H334.69c-.18,0-.25-.11-.21-.32l.45-2.37c0-.21.15-.31.33-.31Z"/><path class="cls-4" d="M344.72,123.35q-.45,0-.36-.45l1-5.46a.49.49,0,0,1,.53-.45h5a7.18,7.18,0,0,0,2.92-.51,3,3,0,0,0,1.48-2.39h-2.82a20,20,0,0,1-4.44-.43,6.28,6.28,0,0,1-3-1.5,5.12,5.12,0,0,1-1.49-2.88,12.39,12.39,0,0,1,.17-4.59,14.27,14.27,0,0,1,1.85-5,11.46,11.46,0,0,1,2.93-3.22,10.22,10.22,0,0,1,3.61-1.7,15.84,15.84,0,0,1,3.92-.5,15.52,15.52,0,0,1,3.8.45,6.88,6.88,0,0,1,3,1.59,6.37,6.37,0,0,1,1.76,3.11,11.58,11.58,0,0,1-.05,5l-2,10.47a10.54,10.54,0,0,1-3.34,6.3q-2.55,2.2-7.52,2.2Zm10.2-22.77a3.31,3.31,0,0,0-2.52,1,5.39,5.39,0,0,0-1.28,2.75,4.81,4.81,0,0,0-.07,1.7,2.2,2.2,0,0,0,.45,1.06,1.68,1.68,0,0,0,.89.51,5.19,5.19,0,0,0,1.22.13h2.91l.68-3.57a3.5,3.5,0,0,0-.29-2.76A2.38,2.38,0,0,0,354.92,100.58Z"/><path class="cls-2" d="M204.77,130.72a.25.25,0,0,1,.27-.23h5.1c2.6,0,4,1.08,4.34,3.23,0,.21,0,.43,0,.65a8.08,8.08,0,0,1,0,.82c0,.33-.07.73-.14,1.19l-.3,1.69c-.13.67-.24,1.23-.34,1.69s-.2.86-.3,1.18-.2.6-.29.83-.19.44-.29.64a5.76,5.76,0,0,1-5.56,3.23h-5.1c-.15,0-.21-.07-.18-.22Zm-.43,12.94c0,.09,0,.14.11.14h2.77a5,5,0,0,0,2.31-.48,3.58,3.58,0,0,0,1.52-1.6,5,5,0,0,0,.22-.46,4.46,4.46,0,0,0,.23-.68c.08-.28.16-.62.25-1s.19-.9.3-1.49.2-1.09.26-1.49.11-.74.14-1a4.25,4.25,0,0,0,0-.68c0-.18,0-.33,0-.47a2.15,2.15,0,0,0-.92-1.59,4,4,0,0,0-2.13-.48H206.6a.15.15,0,0,0-.16.14Z"/><path class="cls-2" d="M216,145.64c-.15,0-.21-.07-.18-.22l1.92-10.23A.25.25,0,0,1,218,135h1.43c.14,0,.2.08.18.22l-1.93,10.23a.25.25,0,0,1-.27.22Zm2.42-13.07c-.15,0-.21-.08-.18-.23l.3-1.62a.25.25,0,0,1,.27-.23h1.51c.15,0,.21.08.18.23l-.3,1.62a.25.25,0,0,1-.27.23Z"/><path class="cls-2" d="M225,145.89a6.25,6.25,0,0,1-1.42-.15,5.45,5.45,0,0,1-1.14-.37,5.43,5.43,0,0,1-1.55-1.08c-.08-.11-.06-.21.06-.32l1.1-1c.12-.1.23-.1.31,0a4.36,4.36,0,0,0,3.07,1.23,3.17,3.17,0,0,0,1.84-.46,1.75,1.75,0,0,0,.8-1.17,1.08,1.08,0,0,0-.22-1,2.72,2.72,0,0,0-1.57-.5l-1.11-.11a3.3,3.3,0,0,1-2.21-.94,2.32,2.32,0,0,1-.41-2.07,3.69,3.69,0,0,1,1.48-2.4,5.21,5.21,0,0,1,3.1-.85,6.05,6.05,0,0,1,2.08.33,4.47,4.47,0,0,1,1.48.85c.11.07.1.18,0,.31l-.94,1a.23.23,0,0,1-.32,0,4.89,4.89,0,0,0-1.17-.6,4.34,4.34,0,0,0-1.54-.27,2.68,2.68,0,0,0-1.59.42,1.62,1.62,0,0,0-.72,1,1,1,0,0,0,.26,1,2.89,2.89,0,0,0,1.57.45l1.1.11a3.24,3.24,0,0,1,2.25.94,2.38,2.38,0,0,1,.4,2.07,4,4,0,0,1-1.59,2.54A5.54,5.54,0,0,1,225,145.89Z"/><path class="cls-2" d="M232.6,140.3a12.58,12.58,0,0,1,.38-1.55,8.59,8.59,0,0,1,.46-1.15,5.1,5.1,0,0,1,2-2.14,5.43,5.43,0,0,1,2.79-.73,4.05,4.05,0,0,1,2.06.48,3.08,3.08,0,0,1,1.26,1.32c.05.12,0,.22-.13.31l-1.13.81c-.13.08-.24.08-.31,0a2.73,2.73,0,0,0-.81-.87,2.4,2.4,0,0,0-1.26-.28,3,3,0,0,0-1.57.41,2.85,2.85,0,0,0-1.13,1.26,5.63,5.63,0,0,0-.37.93c-.1.34-.19.75-.28,1.23a12.2,12.2,0,0,0-.18,1.23,4.25,4.25,0,0,0,0,.95,1.78,1.78,0,0,0,.65,1.26,2.34,2.34,0,0,0,1.42.41,2.92,2.92,0,0,0,1.37-.29,4.32,4.32,0,0,0,1.14-.87.22.22,0,0,1,.32,0l.83.8a.21.21,0,0,1,0,.32,5.43,5.43,0,0,1-1.76,1.32,5.14,5.14,0,0,1-2.24.48,4.07,4.07,0,0,1-2.51-.74,3,3,0,0,1-1.16-2.13,7,7,0,0,1,0-1.15A14.64,14.64,0,0,1,232.6,140.3Z"/><path class="cls-2" d="M246.63,145.89a3.92,3.92,0,0,1-2.52-.76A3.13,3.13,0,0,1,243,143a7.53,7.53,0,0,1-.05-1.17,11.39,11.39,0,0,1,.21-1.55,9.87,9.87,0,0,1,.38-1.54,7.86,7.86,0,0,1,.48-1.16,5.16,5.16,0,0,1,2-2.13,5.4,5.4,0,0,1,2.8-.74,4.09,4.09,0,0,1,2.53.74,3.08,3.08,0,0,1,1.14,2.13,6.32,6.32,0,0,1,0,1.16,10,10,0,0,1-.2,1.54,12.13,12.13,0,0,1-.38,1.55,10,10,0,0,1-.49,1.17,5.14,5.14,0,0,1-1.94,2.11A5.26,5.26,0,0,1,246.63,145.89Zm.33-1.74a3,3,0,0,0,1.6-.43,3.07,3.07,0,0,0,1.12-1.24,6.05,6.05,0,0,0,.36-.92,11.93,11.93,0,0,0,.3-1.26c.09-.52.15-.94.18-1.25a5.48,5.48,0,0,0,0-.91,1.87,1.87,0,0,0-.66-1.24,2.22,2.22,0,0,0-1.43-.43,2.94,2.94,0,0,0-2.72,1.67,6,6,0,0,0-.37.91c-.09.31-.19.73-.29,1.25s-.16.94-.18,1.26a4.68,4.68,0,0,0,0,.92,1.82,1.82,0,0,0,.65,1.24A2.25,2.25,0,0,0,247,144.15Z"/><path class="cls-2" d="M261,145.64c-.15,0-.21-.07-.18-.22l.19-1h0a4,4,0,0,1-1.34,1.07,4.06,4.06,0,0,1-1.85.4,2.85,2.85,0,0,1-2.52-1.1,3.77,3.77,0,0,1-.42-2.93l1.25-6.67a.25.25,0,0,1,.27-.22h1.43c.14,0,.2.08.18.22l-1.17,6.22a2.85,2.85,0,0,0,.19,2,1.81,1.81,0,0,0,1.65.71,2.72,2.72,0,0,0,1.88-.71,3.33,3.33,0,0,0,1-1.92l1.2-6.33A.24.24,0,0,1,263,135h1.43c.14,0,.2.08.18.22l-1.93,10.23a.24.24,0,0,1-.26.22Z"/><path class="cls-2" d="M273.19,145.64c-.15,0-.21-.07-.18-.22l1.18-6.24a2.7,2.7,0,0,0-.22-2,1.79,1.79,0,0,0-1.66-.71,2.81,2.81,0,0,0-1.9.7,3.19,3.19,0,0,0-1,1.9l-1.19,6.35a.25.25,0,0,1-.27.22h-1.43c-.14,0-.2-.07-.18-.22l1.93-10.23a.25.25,0,0,1,.27-.22h1.42c.15,0,.21.08.18.22l-.18,1h0a3.7,3.7,0,0,1,1.33-1,4.25,4.25,0,0,1,1.93-.41,2.86,2.86,0,0,1,2.51,1.09,3.69,3.69,0,0,1,.43,2.92l-1.26,6.68a.24.24,0,0,1-.26.22Z"/><path class="cls-2" d="M281.46,145.76a2.45,2.45,0,0,1-2.08-.73,3,3,0,0,1-.22-2.3l1.15-6.11c0-.09,0-.13-.11-.13h-.89c-.15,0-.21-.08-.18-.23l.2-1.07a.24.24,0,0,1,.26-.22h.89a.15.15,0,0,0,.16-.13l.57-3a.24.24,0,0,1,.26-.22h1.43c.15,0,.21.07.18.22l-.57,3c0,.09,0,.13.11.13h1.69c.15,0,.21.08.19.22l-.21,1.07a.24.24,0,0,1-.26.23h-1.69a.14.14,0,0,0-.16.13l-1.14,6q-.15.79.12,1.08a1.34,1.34,0,0,0,1,.28h.47c.15,0,.21.07.18.22l-.24,1.29a.25.25,0,0,1-.27.23Z"/><path class="cls-2" d="M289.05,145.89a6.25,6.25,0,0,1-1.42-.15,5.45,5.45,0,0,1-1.14-.37,5.84,5.84,0,0,1-1.55-1.08c-.08-.11-.06-.21.06-.32l1.1-1c.12-.1.23-.1.31,0a4.17,4.17,0,0,0,1.3.87,4.24,4.24,0,0,0,1.77.36,3.21,3.21,0,0,0,1.85-.46,1.79,1.79,0,0,0,.8-1.17,1.11,1.11,0,0,0-.23-1,2.71,2.71,0,0,0-1.56-.5l-1.12-.11a3.33,3.33,0,0,1-2.21-.94,2.32,2.32,0,0,1-.41-2.07,3.66,3.66,0,0,1,1.49-2.4,5.2,5.2,0,0,1,3.09-.85,6.11,6.11,0,0,1,2.09.33,4.52,4.52,0,0,1,1.47.85c.11.07.1.18,0,.31l-.94,1a.23.23,0,0,1-.32,0,4.89,4.89,0,0,0-1.17-.6,4.3,4.3,0,0,0-1.54-.27,2.68,2.68,0,0,0-1.59.42,1.58,1.58,0,0,0-.71,1,1,1,0,0,0,.26,1,2.83,2.83,0,0,0,1.57.45l1.09.11a3.24,3.24,0,0,1,2.25.94,2.41,2.41,0,0,1,.41,2.07,4,4,0,0,1-1.6,2.54A5.54,5.54,0,0,1,289.05,145.89Z"/><path class="cls-2" d="M302.22,142.32c0-.22-.05-.44-.06-.67a6.35,6.35,0,0,1,0-.83c0-.32.08-.7.15-1.15s.16-1,.28-1.6.22-1.16.32-1.6.19-.83.28-1.15.19-.6.28-.83.2-.45.32-.68a6.4,6.4,0,0,1,2.38-2.68,6.28,6.28,0,0,1,3.33-.88,4.7,4.7,0,0,1,2.8.79,3.83,3.83,0,0,1,1.48,2.26.26.26,0,0,1-.15.29l-1.45.65c-.17.07-.26,0-.3-.11a3.08,3.08,0,0,0-.9-1.46,2.64,2.64,0,0,0-1.83-.57,3.72,3.72,0,0,0-2.12.58,4.33,4.33,0,0,0-1.44,1.65c-.08.16-.15.33-.23.52s-.14.42-.21.69-.16.62-.25,1-.2.9-.31,1.5-.2,1.09-.26,1.5-.11.75-.14,1a6.41,6.41,0,0,0,0,.7,3.89,3.89,0,0,0,0,.51,2.66,2.66,0,0,0,.82,1.65,2.75,2.75,0,0,0,1.9.58,3.55,3.55,0,0,0,2-.57,5.48,5.48,0,0,0,1.46-1.46c.09-.15.2-.18.33-.11l1.22.65c.09.06.1.15,0,.29a6.46,6.46,0,0,1-2.33,2.26,6.19,6.19,0,0,1-3.1.79,4.72,4.72,0,0,1-3-.88A3.9,3.9,0,0,1,302.22,142.32Z"/><path class="cls-2" d="M318.17,145.89a3.94,3.94,0,0,1-2.52-.76,3.08,3.08,0,0,1-1.14-2.11,6.47,6.47,0,0,1-.05-1.17,13.87,13.87,0,0,1,.58-3.09,7.91,7.91,0,0,1,.49-1.16,5.16,5.16,0,0,1,2-2.13,5.37,5.37,0,0,1,2.8-.74,4,4,0,0,1,2.52.74A3.13,3.13,0,0,1,324,137.6a7.35,7.35,0,0,1,.05,1.16,13.31,13.31,0,0,1-.2,1.54,14.1,14.1,0,0,1-.38,1.55,10,10,0,0,1-.49,1.17,5.23,5.23,0,0,1-4.76,2.87Zm.33-1.74a3,3,0,0,0,1.6-.43,3.07,3.07,0,0,0,1.12-1.24,6.1,6.1,0,0,0,.37-.92c.09-.32.19-.74.29-1.26a10.62,10.62,0,0,0,.18-1.25,4.58,4.58,0,0,0,0-.91,1.83,1.83,0,0,0-.66-1.24,2.22,2.22,0,0,0-1.43-.43,3,3,0,0,0-1.6.43,3.07,3.07,0,0,0-1.12,1.24,5.07,5.07,0,0,0-.36.91,11.41,11.41,0,0,0-.29,1.25,10.46,10.46,0,0,0-.18,1.26,4.7,4.7,0,0,0,0,.92,1.87,1.87,0,0,0,.66,1.24A2.22,2.22,0,0,0,318.5,144.15Z"/><path class="cls-2" d="M332.48,145.64c-.15,0-.21-.07-.18-.22l.19-1h0a4.06,4.06,0,0,1-1.3,1.07,4.33,4.33,0,0,1-2,.42,3.47,3.47,0,0,1-2.22-.65,2.75,2.75,0,0,1-1-1.91,5.42,5.42,0,0,1-.05-1.34,13.86,13.86,0,0,1,.24-1.69,16.54,16.54,0,0,1,.39-1.68,7.31,7.31,0,0,1,.55-1.33,4.38,4.38,0,0,1,4.16-2.56,3.41,3.41,0,0,1,1.85.41,2.27,2.27,0,0,1,.91,1.06h0l1-5.48a.25.25,0,0,1,.27-.23h1.42c.15,0,.21.08.18.23l-2.77,14.7a.24.24,0,0,1-.26.22Zm-2.55-1.49a2.81,2.81,0,0,0,2.67-1.62,4.54,4.54,0,0,0,.36-.91c.1-.35.21-.79.31-1.32s.16-1,.19-1.32a4.49,4.49,0,0,0,0-.91c-.15-1.07-.84-1.6-2.06-1.6a2.8,2.8,0,0,0-2.64,1.6,5.39,5.39,0,0,0-.37,1,11.57,11.57,0,0,0-.3,1.25c-.09.49-.15.91-.18,1.27a4.35,4.35,0,0,0,0,1A1.8,1.8,0,0,0,329.93,144.15Z"/><path class="cls-2" d="M341.73,145.89a4.09,4.09,0,0,1-2.59-.75A3.07,3.07,0,0,1,338,143a5.84,5.84,0,0,1-.05-1.13,11.3,11.3,0,0,1,.21-1.56,12.72,12.72,0,0,1,.37-1.57,5.91,5.91,0,0,1,.47-1.13,5,5,0,0,1,1.95-2.14,5.34,5.34,0,0,1,2.78-.73,4,4,0,0,1,2.5.74,3.13,3.13,0,0,1,1.15,2.13c0,.18,0,.36,0,.55s0,.39,0,.63-.05.51-.09.82-.1.65-.18,1.05a.25.25,0,0,1-.28.23h-6.75a.14.14,0,0,0-.16.13,5.09,5.09,0,0,0-.1.74,4.93,4.93,0,0,0,0,.55,2,2,0,0,0,.74,1.4,2.65,2.65,0,0,0,1.61.45,4.08,4.08,0,0,0,1.69-.33,4.56,4.56,0,0,0,1.27-.85c.14-.12.26-.13.35,0l.75.82c.09.09.08.19,0,.31a6.27,6.27,0,0,1-4.51,1.83Zm3.59-6.53a.15.15,0,0,0,.16-.13,4,4,0,0,0,.07-1.2,1.8,1.8,0,0,0-.68-1.22,2.27,2.27,0,0,0-1.46-.43,3.08,3.08,0,0,0-1.63.43,3,3,0,0,0-1.14,1.22,4.72,4.72,0,0,0-.38,1.2c0,.09,0,.13.11.13Z"/><path class="cls-2" d="M352.82,145.89a6.25,6.25,0,0,1-1.42-.15,5.45,5.45,0,0,1-1.14-.37,5.43,5.43,0,0,1-1.55-1.08c-.08-.11-.06-.21.06-.32l1.1-1c.12-.1.23-.1.31,0a4.36,4.36,0,0,0,3.07,1.23,3.15,3.15,0,0,0,1.84-.46,1.77,1.77,0,0,0,.81-1.17,1.11,1.11,0,0,0-.23-1,2.72,2.72,0,0,0-1.57-.5L353,141a3.33,3.33,0,0,1-2.21-.94,2.32,2.32,0,0,1-.41-2.07,3.66,3.66,0,0,1,1.49-2.4,5.18,5.18,0,0,1,3.09-.85,6.15,6.15,0,0,1,2.09.33,4.52,4.52,0,0,1,1.47.85c.11.07.1.18,0,.31l-.94,1a.23.23,0,0,1-.32,0,4.89,4.89,0,0,0-1.17-.6,4.34,4.34,0,0,0-1.54-.27,2.68,2.68,0,0,0-1.59.42,1.58,1.58,0,0,0-.71,1,1,1,0,0,0,.26,1,2.82,2.82,0,0,0,1.56.45l1.1.11a3.24,3.24,0,0,1,2.25.94,2.38,2.38,0,0,1,.4,2.07,3.93,3.93,0,0,1-1.59,2.54A5.54,5.54,0,0,1,352.82,145.89Z"/><path class="cls-5" d="M126.7,77.28c0,3.22-.88,5.73-2.66,7.52a10.75,10.75,0,0,1-14.18,0q-2.69-2.68-2.69-7.52a10,10,0,0,1,2.72-7.41,10.67,10.67,0,0,1,14.12,0A10,10,0,0,1,126.7,77.28Zm-12.11,0q0,4,2.37,4t2.33-4q0-4-2.33-4T114.59,77.28Zm22.87-9.39h7.19l-21,38.65h-7.19ZM153.93,97c0,3.22-.88,5.73-2.66,7.52a9.53,9.53,0,0,1-7.07,2.67,9.64,9.64,0,0,1-7.11-2.67q-2.68-2.69-2.69-7.52a10,10,0,0,1,2.72-7.41,10.68,10.68,0,0,1,14.13,0A10,10,0,0,1,153.93,97Zm-12.11,0q0,4,2.38,4c1.54,0,2.32-1.34,2.32-4s-.78-4-2.32-4S141.82,94.39,141.82,97Z"/></g></g></svg>